<?xml version="1.0" standalone="no"?>
<!DOCTYPE svg PUBLIC "-//W3C//DTD SVG 20010904//EN"
 "http://www.w3.org/TR/2001/REC-SVG-20010904/DTD/svg10.dtd">
<svg version="1.0" xmlns="http://www.w3.org/2000/svg"
 width="500.000000pt" height="500.000000pt" viewBox="0 0 500.000000 500.000000"
 preserveAspectRatio="xMidYMid meet">

<g transform="translate(0.000000,500.000000) scale(0.100000,-0.100000)"
fill="#000000" stroke="none">
<path d="M3700 3828 c0 -6 -3 -9 -6 -5 -4 3 -23 -1 -43 -9 -20 -9 -76 -20
-126 -25 -102 -11 -150 -25 -183 -55 -21 -19 -22 -22 -7 -28 9 -3 20 -4 24 -1
5 2 6 -6 4 -18 -3 -18 4 -25 37 -39 36 -15 41 -15 36 -2 -7 17 27 53 66 71 14
6 29 21 32 31 6 19 18 23 131 52 22 5 49 16 60 24 20 15 20 15 -2 16 -13 0
-23 -5 -23 -12z"/>
<path d="M1910 3806 c0 -8 4 -17 9 -20 5 -4 7 3 4 14 -6 23 -13 26 -13 6z"/>
<path d="M2056 3785 c-13 -10 -5 -18 45 -53 33 -23 66 -42 73 -42 6 0 17 -5
23 -11 11 -11 63 -2 63 12 0 5 4 9 10 9 5 0 7 -7 4 -15 -4 -10 0 -15 11 -15
10 0 13 -5 9 -12 -4 -7 -8 -22 -9 -33 0 -16 4 -21 17 -17 26 6 60 58 56 85 -3
20 -8 22 -52 18 -27 -2 -56 -9 -63 -17 -7 -7 -20 -11 -28 -8 -16 6 -28 34 -19
43 4 3 9 0 11 -6 3 -7 12 -13 21 -12 11 0 12 2 5 6 -7 2 -13 10 -13 17 0 20
-145 64 -164 51z"/>
<path d="M2833 3763 c-27 -10 -13 -33 21 -33 39 0 67 24 40 34 -18 7 -43 7
-61 -1z"/>
<path d="M1940 3742 c0 -12 39 -60 40 -49 0 5 -9 20 -20 34 -11 14 -20 21 -20
15z"/>
<path d="M2662 3734 c-7 -8 -8 -14 -3 -14 10 0 25 19 20 25 -2 1 -10 -3 -17
-11z"/>
<path d="M2690 3733 c0 -13 5 -23 10 -23 13 0 13 11 0 30 -8 12 -10 11 -10 -7z"/>
<path d="M2610 3720 c0 -5 5 -10 11 -10 5 0 7 -5 3 -12 -4 -7 -3 -8 4 -4 17
10 15 36 -3 36 -8 0 -15 -4 -15 -10z"/>
<path d="M2049 3579 c6 -18 21 -28 21 -14 0 3 0 9 0 14 0 5 -7 11 -14 14 -11
5 -13 1 -7 -14z"/>
<path d="M2460 3333 c0 -21 55 -71 97 -89 41 -18 75 -18 116 -1 39 17 57 12
57 -14 0 -10 5 -19 10 -19 5 0 9 -4 8 -9 -5 -16 60 -88 109 -120 26 -18 51
-40 55 -49 5 -14 7 -13 7 5 1 12 9 24 21 28 11 3 20 11 20 16 0 6 -4 7 -10 4
-5 -3 -10 -1 -10 4 0 6 5 11 10 11 6 0 18 8 28 18 9 9 29 24 42 33 14 9 23 19
20 22 -3 3 -24 -8 -48 -24 -23 -15 -42 -26 -42 -22 0 10 84 87 93 85 4 -1 7 2
7 8 0 5 13 10 29 10 38 0 149 35 179 56 15 10 22 24 20 37 -4 27 -35 32 -127
22 -76 -8 -121 -43 -121 -93 0 -36 -31 -66 -59 -57 -12 3 -18 11 -15 17 4 6 2
8 -4 4 -6 -3 -14 -1 -17 5 -4 5 -13 8 -21 5 -7 -3 -16 0 -20 6 -5 7 -11 6 -19
-6 -10 -13 -18 -14 -37 -7 -17 6 -29 6 -36 -1 -17 -17 -40 -2 -62 41 -12 25
-36 50 -63 66 -38 22 -56 25 -130 25 -74 0 -87 -2 -87 -17z"/>
<path d="M2129 3311 c-13 -11 -20 -23 -16 -27 4 -4 20 4 35 19 30 31 16 37
-19 8z"/>
<path d="M2145 3229 c-4 -6 -5 -12 -2 -15 2 -3 7 2 10 11 7 17 1 20 -8 4z"/>
<path d="M2171 3193 c-1 -6 -4 -20 -7 -30 -5 -17 -5 -17 6 0 6 10 9 23 6 30
-3 9 -5 9 -5 0z"/>
<path d="M2031 3100 c-23 -17 -44 -37 -47 -44 -3 -8 -14 -12 -25 -9 -15 4 -18
2 -13 -11 3 -9 10 -16 16 -16 5 0 6 -4 3 -10 -3 -5 1 -10 9 -10 9 0 16 -8 16
-17 1 -17 2 -17 14 0 8 10 12 31 9 48 -5 33 12 40 22 9 3 -11 10 -20 15 -20 5
0 6 8 3 17 -5 12 -2 15 10 10 14 -5 15 -2 7 19 -13 33 -13 34 4 28 18 -7 26
-50 13 -63 -6 -6 -7 -11 -2 -11 4 0 0 -9 -9 -19 -10 -11 -34 -53 -55 -94 l-38
-76 24 -5 c12 -4 23 -11 23 -17 0 -6 -7 -6 -20 1 -17 9 -20 8 -20 -9 0 -14 5
-19 20 -16 11 2 20 0 20 -6 0 -5 -6 -9 -13 -9 -7 0 -14 -11 -15 -25 -3 -40 15
-29 33 20 10 25 24 50 33 57 13 11 15 9 10 -14 -3 -16 -1 -28 4 -28 5 0 3 -10
-4 -22 -7 -13 -11 -27 -10 -31 1 -4 -2 -16 -7 -26 -12 -21 8 -55 24 -43 6 4
23 45 39 91 26 77 27 85 12 96 -17 13 -22 55 -6 55 6 0 10 7 10 16 0 10 -5 14
-15 10 -13 -4 -14 -2 -5 14 6 11 15 20 20 20 6 0 9 34 7 78 -2 81 -7 90 -53
91 -12 1 -40 -13 -63 -29z m91 -30 c3 -19 1 -29 -6 -27 -14 4 -21 57 -8 57 5
0 12 -14 14 -30z m-19 -185 c-3 -9 -8 -14 -10 -11 -3 3 -2 9 2 15 9 16 15 13
8 -4z"/>
<path d="M2882 2907 c-53 -55 -36 -108 33 -101 33 3 65 36 65 66 0 17 -44 68
-59 68 -4 0 -21 -15 -39 -33z"/>
<path d="M1956 2755 c-3 -8 -1 -15 4 -15 6 0 10 7 10 15 0 8 -2 15 -4 15 -2 0
-6 -7 -10 -15z"/>
<path d="M2286 2671 c-4 -7 -5 -15 -2 -18 9 -9 19 4 14 18 -4 11 -6 11 -12 0z"/>
<path d="M2260 2635 c0 -8 9 -19 20 -25 23 -12 25 -7 10 21 -13 22 -30 25 -30
4z"/>
<path d="M2315 2619 c-4 -5 0 -18 9 -28 9 -10 16 -22 14 -27 -1 -5 6 -25 16
-44 11 -19 34 -63 52 -98 19 -35 41 -73 50 -85 l16 -22 -5 23 c-8 32 9 18 47
-42 19 -29 47 -62 62 -73 l29 -21 18 24 c14 18 27 24 55 23 20 0 31 -3 24 -6
-6 -2 -10 -9 -6 -14 3 -5 -4 -9 -15 -9 -25 0 -28 -30 -9 -91 10 -35 15 -39 44
-39 35 0 43 12 45 63 1 25 3 27 6 9 3 -17 9 -21 23 -17 10 3 32 7 49 10 38 4
91 27 91 38 0 4 6 7 13 6 6 -1 25 3 40 9 16 7 35 12 43 12 8 0 14 6 14 13 0 7
19 24 43 37 23 13 58 36 77 52 19 15 40 28 47 28 7 0 13 7 13 16 0 8 4 13 10
9 11 -7 43 52 35 65 -4 6 0 13 8 16 27 10 27 43 2 60 -22 14 -27 14 -57 -3
-18 -10 -35 -21 -38 -25 -10 -13 -60 -28 -60 -18 0 6 10 10 23 11 21 0 21 1 2
9 -19 8 -19 9 3 9 12 1 22 5 22 10 0 5 -11 8 -25 7 -14 -2 -22 1 -18 6 3 6 -7
7 -28 3 -19 -4 -35 -11 -37 -16 -2 -5 -8 -9 -13 -9 -6 0 -7 6 -3 13 5 9 4 9
-6 1 -6 -7 -13 -24 -13 -38 -1 -14 -4 -26 -7 -27 -33 -5 -50 -4 -50 4 0 6 -3
7 -7 4 -3 -4 -12 -2 -20 5 -7 6 -17 8 -21 4 -4 -4 4 -16 18 -26 14 -11 20 -20
13 -20 -7 0 -10 -7 -6 -15 3 -10 1 -15 -8 -13 -7 2 -19 -10 -27 -25 -12 -24
-16 -26 -30 -15 -10 8 -13 9 -9 1 10 -16 -44 -53 -77 -53 -14 0 -29 6 -33 14
-4 8 -30 24 -58 36 -27 12 -57 26 -65 31 -8 5 -26 15 -40 21 -44 22 -89 55
-83 61 3 3 -2 14 -12 23 -14 15 -18 15 -26 3 -8 -13 -13 -5 -10 14 1 5 -2 6
-7 3 -5 -3 -18 3 -29 14 -12 10 -24 16 -27 13 -6 -6 -10 13 -7 30 1 5 -3 6 -8
2 -13 -7 -51 30 -51 50 0 17 -16 20 -25 4z m461 -416 c-10 -10 -19 5 -10 18 6
11 8 11 12 0 2 -7 1 -15 -2 -18z"/>
<path d="M3395 2527 c-7 -16 1 -67 15 -107 6 -14 4 -78 -1 -74 -4 2 -9 -5 -12
-16 -3 -11 -1 -20 4 -20 13 0 50 43 41 49 -4 3 -7 31 -8 61 -1 64 -27 136 -39
107z"/>
<path d="M3006 2485 c-9 -26 -7 -32 5 -12 6 10 9 21 6 23 -2 3 -7 -2 -11 -11z"/>
<path d="M3352 2456 c1 -24 6 -33 17 -31 9 1 16 7 15 13 -1 7 -2 18 -2 26 -1
8 -9 17 -17 20 -12 4 -15 -1 -13 -28z"/>
<path d="M2750 2374 c-17 -9 -20 -14 -9 -14 9 0 22 7 29 15 15 18 13 18 -20
-1z"/>
<path d="M3360 2350 c-3 -47 0 -64 13 -72 17 -10 29 2 17 17 -7 8 -9 19 -5 25
3 5 2 10 -4 10 -5 0 -12 12 -14 28 -4 24 -4 23 -7 -8z"/>
<path d="M2845 2340 c-3 -5 -1 -10 4 -10 6 0 11 5 11 10 0 6 -2 10 -4 10 -3 0
-8 -4 -11 -10z"/>
<path d="M2265 2265 c-4 -25 -5 -48 -2 -51 3 -3 9 15 12 41 4 25 5 48 2 51 -3
3 -9 -15 -12 -41z"/>
<path d="M2237 2274 c-4 -4 -7 -17 -7 -28 1 -19 1 -20 11 -3 11 19 8 43 -4 31z"/>
<path d="M2208 2250 c-7 -24 -3 -38 8 -28 3 4 4 17 2 30 l-3 23 -7 -25z"/>
<path d="M3310 2226 c0 -9 5 -16 10 -16 6 0 10 4 10 9 0 6 -4 13 -10 16 -5 3
-10 -1 -10 -9z"/>
<path d="M2327 2203 c-4 -3 -7 -15 -7 -25 0 -11 -7 -18 -18 -18 -10 0 -19 -6
-19 -14 0 -28 41 0 48 33 7 33 6 35 -4 24z"/>
<path d="M3280 2200 c0 -5 5 -10 11 -10 5 0 7 5 4 10 -3 6 -8 10 -11 10 -2 0
-4 -4 -4 -10z"/>
<path d="M3240 2171 c0 -6 4 -13 10 -16 6 -3 7 1 4 9 -7 18 -14 21 -14 7z"/>
<path d="M3160 2154 c0 -15 35 -54 48 -54 6 0 13 8 15 18 4 16 5 16 6 -1 0
-10 5 -16 11 -12 10 6 2 34 -14 50 -15 14 -66 13 -66 -1z"/>
<path d="M2387 2103 c-2 -21 -1 -45 4 -53 5 -10 9 4 9 38 0 61 -6 68 -13 15z"/>
<path d="M2426 2108 c-15 -57 -1 -129 22 -114 6 3 13 0 15 -6 3 -7 6 -1 6 15
1 15 -3 27 -9 27 -5 0 -10 -4 -10 -10 0 -5 -4 -10 -8 -10 -5 0 -6 27 -4 60 4
61 -1 78 -12 38z"/>
<path d="M2707 2068 c-8 -5 -7 -8 4 -8 29 0 42 -53 33 -127 l-8 -68 -7 60 c-4
33 -10 73 -15 89 -5 22 -4 27 6 21 8 -5 11 -4 7 3 -4 5 -16 8 -27 5 -12 -3
-22 1 -26 10 -6 17 -35 11 -33 -7 4 -32 -2 -66 -11 -61 -5 3 -10 1 -10 -4 0
-6 5 -11 11 -11 5 0 7 -4 4 -10 -3 -5 5 -15 19 -22 29 -12 33 -30 13 -47 -16
-13 -28 -5 -21 14 3 7 -2 15 -10 18 -22 9 -21 -44 1 -90 14 -30 14 -36 2 -44
-11 -7 -11 -9 4 -9 9 0 17 -4 17 -9 0 -5 9 -7 21 -4 11 3 18 11 15 18 -3 8 2
16 10 19 24 9 27 7 21 -15 -5 -18 -3 -18 11 -7 58 45 81 119 63 196 -21 84
-31 102 -58 100 -13 -2 -29 -6 -36 -10z m53 -18 c6 -11 8 -20 6 -20 -3 0 -10
9 -16 20 -6 11 -8 20 -6 20 3 0 10 -9 16 -20z m-70 -206 c0 -2 -9 0 -20 6 -11
6 -20 13 -20 16 0 2 9 0 20 -6 11 -6 20 -13 20 -16z"/>
<path d="M2498 2005 c2 -19 6 -35 8 -35 2 0 4 16 4 35 0 19 -4 35 -8 35 -4 0
-6 -16 -4 -35z"/>
<path d="M2530 1997 c0 -16 4 -26 10 -22 6 3 10 2 10 -4 0 -5 9 -9 20 -8 21 1
27 21 10 32 -5 3 -10 0 -10 -7 0 -7 -9 -2 -20 12 l-20 25 0 -28z"/>
<path d="M1997 1813 c-3 -5 3 -25 13 -46 10 -20 14 -37 9 -37 -19 0 1 -18 25
-22 16 -3 27 0 31 9 7 19 -2 33 -21 33 -8 0 -14 5 -14 11 0 16 -38 61 -43 52z"/>
<path d="M2349 1758 c-10 -81 -3 -93 34 -65 14 11 14 16 2 45 -14 32 -34 43
-36 20z"/>
<path d="M2272 1690 c0 -14 2 -19 5 -12 2 6 2 18 0 25 -3 6 -5 1 -5 -13z"/>
<path d="M2896 1611 c-49 -17 -83 -51 -71 -71 9 -15 14 -140 5 -140 -12 0 -60
62 -54 71 3 5 -1 7 -8 4 -19 -6 -52 21 -42 36 4 7 3 10 -4 5 -5 -3 -13 0 -16
6 -3 7 -3 1 0 -13 3 -15 1 -30 -5 -33 -6 -4 -11 -16 -11 -27 0 -10 -5 -19 -11
-19 -6 0 -9 -7 -5 -15 3 -8 0 -15 -5 -15 -7 0 -9 -11 -7 -25 3 -15 1 -22 -5
-18 -6 4 -8 0 -4 -11 4 -10 7 -27 7 -39 1 -32 21 -53 58 -62 32 -7 33 -6 26
20 -5 21 -4 26 7 23 8 -3 14 -14 13 -26 0 -12 3 -19 8 -16 4 3 8 0 8 -5 0 -12
50 -15 51 -3 0 4 3 18 5 32 3 14 4 35 4 48 0 12 5 22 10 22 6 0 10 -11 10 -24
0 -25 18 -37 63 -43 20 -2 26 1 21 10 -4 6 1 5 12 -4 28 -24 57 -21 49 5 -3
12 -7 26 -9 33 -4 23 -14 25 -21 3 -7 -21 -7 -21 -31 5 -42 45 -57 84 -52 136
3 30 1 50 -6 52 -6 2 11 25 38 50 27 26 43 47 37 47 -7 0 -9 5 -6 10 8 12 2
12 -59 -9z m-126 -201 c0 -5 -2 -10 -4 -10 -3 0 -8 5 -11 10 -3 6 -1 10 4 10
6 0 11 -4 11 -10z"/>
<path d="M2131 1306 c-7 -9 -11 -21 -8 -28 2 -7 0 -21 -5 -31 -13 -25 11 -87
34 -87 11 0 18 -7 18 -18 0 -9 9 -35 21 -56 11 -21 19 -39 17 -41 -18 -15 -48
-23 -53 -15 -3 5 -14 10 -23 10 -14 0 -14 -2 -3 -9 7 -5 11 -13 7 -19 -3 -5 1
-15 9 -22 8 -7 15 -9 15 -4 0 4 5 3 12 -4 32 -32 69 0 64 54 -2 19 4 35 18 47
12 10 16 16 10 13 -15 -7 -64 35 -64 55 0 20 -40 152 -50 162 -4 4 -12 1 -19
-7z"/>
<path d="M3145 1311 c-8 -14 35 -25 49 -11 8 8 7 10 -6 5 -11 -4 -18 -2 -18 4
0 13 -17 15 -25 2z"/>
<path d="M2472 1263 c3 -35 5 -38 35 -38 18 -1 38 -6 45 -13 18 -18 38 -15 38
6 0 26 -14 43 -38 45 -11 0 -19 4 -17 8 5 6 -39 29 -56 29 -6 0 -9 -17 -7 -37z"/>
</g>
</svg>
